<mxfile host="app.diagrams.net" modified="2024-01-29T02:16:24.322Z" agent="Mozilla/5.0 (Windows NT 10.0; Win64; x64) AppleWebKit/537.36 (KHTML, like Gecko) Chrome/121.0.0.0 Safari/537.36" etag="-uCIkSIATV5etiIv752s" version="23.0.2" type="device">
  <diagram name="PÃ¡gina-1" id="LuylCXdO9MJ2inmyczpp">
    <mxGraphModel dx="1434" dy="780" grid="1" gridSize="10" guides="1" tooltips="1" connect="1" arrows="1" fold="1" page="1" pageScale="1" pageWidth="827" pageHeight="1169" math="0" shadow="0">
      <root>
        <mxCell id="0" />
        <mxCell id="1" parent="0" />
        <mxCell id="mNLD_Fydbw7ZUMLRvZzZ-98" value="" style="rounded=0;whiteSpace=wrap;html=1;fillColor=#d5e8d4;strokeColor=#82b366;" parent="1" vertex="1">
          <mxGeometry x="148.75" y="1700" width="470" height="100" as="geometry" />
        </mxCell>
        <mxCell id="mNLD_Fydbw7ZUMLRvZzZ-93" value="" style="rounded=0;whiteSpace=wrap;html=1;fillColor=#dae8fc;strokeColor=#6c8ebf;" parent="1" vertex="1">
          <mxGeometry x="148.75" y="1380" width="470" height="90" as="geometry" />
        </mxCell>
        <mxCell id="mNLD_Fydbw7ZUMLRvZzZ-97" value="" style="shape=step;perimeter=stepPerimeter;whiteSpace=wrap;html=1;fixedSize=1;rotation=-180;" parent="1" vertex="1">
          <mxGeometry x="620" y="1420" width="160" height="40" as="geometry" />
        </mxCell>
        <mxCell id="mNLD_Fydbw7ZUMLRvZzZ-47" value="" style="shape=step;perimeter=stepPerimeter;whiteSpace=wrap;html=1;fixedSize=1;rotation=-180;" parent="1" vertex="1">
          <mxGeometry x="630" y="510" width="160" height="40" as="geometry" />
        </mxCell>
        <mxCell id="mNLD_Fydbw7ZUMLRvZzZ-45" value="" style="shape=step;perimeter=stepPerimeter;whiteSpace=wrap;html=1;fixedSize=1;rotation=-180;" parent="1" vertex="1">
          <mxGeometry x="630" y="450" width="160" height="40" as="geometry" />
        </mxCell>
        <mxCell id="mNLD_Fydbw7ZUMLRvZzZ-39" value="" style="rounded=0;whiteSpace=wrap;html=1;fillColor=#fff2cc;strokeColor=#d6b656;" parent="1" vertex="1">
          <mxGeometry x="160" y="390" width="470" height="170" as="geometry" />
        </mxCell>
        <mxCell id="mNLD_Fydbw7ZUMLRvZzZ-35" value="" style="rounded=0;whiteSpace=wrap;html=1;fillColor=#d5e8d4;strokeColor=#82b366;" parent="1" vertex="1">
          <mxGeometry x="160" y="240" width="470" height="100" as="geometry" />
        </mxCell>
        <mxCell id="mNLD_Fydbw7ZUMLRvZzZ-3" value="Usuario" style="shape=umlLifeline;perimeter=lifelinePerimeter;container=1;collapsible=0;recursiveResize=0;rounded=0;shadow=0;strokeWidth=1;" parent="1" vertex="1">
          <mxGeometry x="130" y="40" width="100" height="550" as="geometry" />
        </mxCell>
        <mxCell id="mNLD_Fydbw7ZUMLRvZzZ-34" value="" style="rounded=0;whiteSpace=wrap;html=1;fillColor=#dae8fc;strokeColor=#6c8ebf;" parent="mNLD_Fydbw7ZUMLRvZzZ-3" vertex="1">
          <mxGeometry x="30" y="70" width="470" height="90" as="geometry" />
        </mxCell>
        <mxCell id="mNLD_Fydbw7ZUMLRvZzZ-4" value="" style="points=[];perimeter=orthogonalPerimeter;rounded=0;shadow=0;strokeWidth=1;" parent="mNLD_Fydbw7ZUMLRvZzZ-3" vertex="1">
          <mxGeometry x="45" y="70" width="10" height="480" as="geometry" />
        </mxCell>
        <mxCell id="mNLD_Fydbw7ZUMLRvZzZ-7" value="ms-user" style="shape=umlLifeline;perimeter=lifelinePerimeter;container=1;collapsible=0;recursiveResize=0;rounded=0;shadow=0;strokeWidth=1;" parent="1" vertex="1">
          <mxGeometry x="530" y="40" width="150" height="540" as="geometry" />
        </mxCell>
        <mxCell id="mNLD_Fydbw7ZUMLRvZzZ-8" value="" style="points=[];perimeter=orthogonalPerimeter;rounded=0;shadow=0;strokeWidth=1;" parent="mNLD_Fydbw7ZUMLRvZzZ-7" vertex="1">
          <mxGeometry x="70" y="55" width="10" height="485" as="geometry" />
        </mxCell>
        <mxCell id="mNLD_Fydbw7ZUMLRvZzZ-10" value="Creacion de usuario(ROLE_ADMIN)" style="verticalAlign=bottom;endArrow=block;shadow=0;strokeWidth=1;" parent="1" edge="1">
          <mxGeometry relative="1" as="geometry">
            <mxPoint x="190" y="130" as="sourcePoint" />
            <mxPoint x="590" y="130" as="targetPoint" />
          </mxGeometry>
        </mxCell>
        <mxCell id="mNLD_Fydbw7ZUMLRvZzZ-11" value="Creacion exitosa (HTTP 200)" style="verticalAlign=bottom;endArrow=block;entryX=1.5;entryY=0.263;shadow=0;strokeWidth=1;entryDx=0;entryDy=0;entryPerimeter=0;" parent="1" edge="1">
          <mxGeometry relative="1" as="geometry">
            <mxPoint x="590" y="170" as="sourcePoint" />
            <mxPoint x="190" y="170" as="targetPoint" />
          </mxGeometry>
        </mxCell>
        <mxCell id="mNLD_Fydbw7ZUMLRvZzZ-13" value="Creacion de usuario(ROLE_USER)" style="verticalAlign=bottom;endArrow=block;shadow=0;strokeWidth=1;fillColor=#d5e8d4;strokeColor=#82b366;" parent="1" edge="1">
          <mxGeometry relative="1" as="geometry">
            <mxPoint x="200" y="270" as="sourcePoint" />
            <mxPoint x="590" y="270" as="targetPoint" />
            <mxPoint as="offset" />
          </mxGeometry>
        </mxCell>
        <mxCell id="mNLD_Fydbw7ZUMLRvZzZ-14" value="Not authorized (HTTP 403)" style="verticalAlign=bottom;endArrow=block;entryX=1.5;entryY=0.263;shadow=0;strokeWidth=1;entryDx=0;entryDy=0;entryPerimeter=0;fillColor=#d5e8d4;strokeColor=#82b366;" parent="1" edge="1">
          <mxGeometry relative="1" as="geometry">
            <mxPoint x="590" y="324.5" as="sourcePoint" />
            <mxPoint x="190" y="324.5" as="targetPoint" />
            <mxPoint as="offset" />
          </mxGeometry>
        </mxCell>
        <mxCell id="mNLD_Fydbw7ZUMLRvZzZ-40" value="Creacion de usuario(ROLE_ADMIN o ROLE_USER)" style="verticalAlign=bottom;endArrow=block;shadow=0;strokeWidth=1;fillColor=#d5e8d4;strokeColor=#82b366;" parent="1" edge="1">
          <mxGeometry relative="1" as="geometry">
            <mxPoint x="200" y="420" as="sourcePoint" />
            <mxPoint x="590" y="420" as="targetPoint" />
            <mxPoint as="offset" />
          </mxGeometry>
        </mxCell>
        <mxCell id="mNLD_Fydbw7ZUMLRvZzZ-41" value="retorna exception de email ya registrado" style="verticalAlign=bottom;endArrow=block;entryX=1.5;entryY=0.263;shadow=0;strokeWidth=1;entryDx=0;entryDy=0;entryPerimeter=0;fillColor=#d5e8d4;strokeColor=#82b366;" parent="1" edge="1">
          <mxGeometry relative="1" as="geometry">
            <mxPoint x="590" y="474.5" as="sourcePoint" />
            <mxPoint x="190" y="474.5" as="targetPoint" />
            <mxPoint as="offset" />
          </mxGeometry>
        </mxCell>
        <mxCell id="mNLD_Fydbw7ZUMLRvZzZ-42" value="retorna Exception" style="verticalAlign=bottom;endArrow=block;entryX=1.5;entryY=0.263;shadow=0;strokeWidth=1;entryDx=0;entryDy=0;entryPerimeter=0;fillColor=#d5e8d4;strokeColor=#82b366;" parent="1" edge="1">
          <mxGeometry relative="1" as="geometry">
            <mxPoint x="590" y="530" as="sourcePoint" />
            <mxPoint x="190" y="530" as="targetPoint" />
            <mxPoint as="offset" />
          </mxGeometry>
        </mxCell>
        <mxCell id="mNLD_Fydbw7ZUMLRvZzZ-46" value="Email ya registrado" style="text;html=1;strokeColor=none;fillColor=none;align=center;verticalAlign=middle;whiteSpace=wrap;rounded=0;" parent="1" vertex="1">
          <mxGeometry x="653.75" y="455" width="112.5" height="30" as="geometry" />
        </mxCell>
        <mxCell id="mNLD_Fydbw7ZUMLRvZzZ-48" value="Formato incorrecto" style="text;html=1;strokeColor=none;fillColor=none;align=center;verticalAlign=middle;whiteSpace=wrap;rounded=0;" parent="1" vertex="1">
          <mxGeometry x="652.5" y="515" width="112.5" height="30" as="geometry" />
        </mxCell>
        <mxCell id="mNLD_Fydbw7ZUMLRvZzZ-49" value="" style="shape=step;perimeter=stepPerimeter;whiteSpace=wrap;html=1;fixedSize=1;rotation=-180;" parent="1" vertex="1">
          <mxGeometry x="628.75" y="300" width="160" height="40" as="geometry" />
        </mxCell>
        <mxCell id="mNLD_Fydbw7ZUMLRvZzZ-50" value="JWT no tiene authorizacion" style="text;html=1;strokeColor=none;fillColor=none;align=center;verticalAlign=middle;whiteSpace=wrap;rounded=0;" parent="1" vertex="1">
          <mxGeometry x="652.5" y="305" width="112.5" height="30" as="geometry" />
        </mxCell>
        <mxCell id="mNLD_Fydbw7ZUMLRvZzZ-54" value="" style="rounded=0;whiteSpace=wrap;html=1;fillColor=#d5e8d4;strokeColor=#82b366;" parent="1" vertex="1">
          <mxGeometry x="158.75" y="880" width="470" height="100" as="geometry" />
        </mxCell>
        <mxCell id="mNLD_Fydbw7ZUMLRvZzZ-55" value="Usuario" style="shape=umlLifeline;perimeter=lifelinePerimeter;container=1;collapsible=0;recursiveResize=0;rounded=0;shadow=0;strokeWidth=1;" parent="1" vertex="1">
          <mxGeometry x="128.75" y="680" width="100" height="360" as="geometry" />
        </mxCell>
        <mxCell id="mNLD_Fydbw7ZUMLRvZzZ-56" value="" style="rounded=0;whiteSpace=wrap;html=1;fillColor=#dae8fc;strokeColor=#6c8ebf;" parent="mNLD_Fydbw7ZUMLRvZzZ-55" vertex="1">
          <mxGeometry x="30" y="70" width="470" height="90" as="geometry" />
        </mxCell>
        <mxCell id="mNLD_Fydbw7ZUMLRvZzZ-57" value="" style="points=[];perimeter=orthogonalPerimeter;rounded=0;shadow=0;strokeWidth=1;" parent="mNLD_Fydbw7ZUMLRvZzZ-55" vertex="1">
          <mxGeometry x="45" y="70" width="10" height="270" as="geometry" />
        </mxCell>
        <mxCell id="mNLD_Fydbw7ZUMLRvZzZ-58" value="ms-user" style="shape=umlLifeline;perimeter=lifelinePerimeter;container=1;collapsible=0;recursiveResize=0;rounded=0;shadow=0;strokeWidth=1;" parent="1" vertex="1">
          <mxGeometry x="528.75" y="680" width="150" height="360" as="geometry" />
        </mxCell>
        <mxCell id="mNLD_Fydbw7ZUMLRvZzZ-59" value="" style="points=[];perimeter=orthogonalPerimeter;rounded=0;shadow=0;strokeWidth=1;" parent="mNLD_Fydbw7ZUMLRvZzZ-58" vertex="1">
          <mxGeometry x="70" y="55" width="10" height="275" as="geometry" />
        </mxCell>
        <mxCell id="mNLD_Fydbw7ZUMLRvZzZ-60" value="Obtener listado de usuarios(ROLE_ADMIN)" style="verticalAlign=bottom;endArrow=block;shadow=0;strokeWidth=1;" parent="1" edge="1">
          <mxGeometry relative="1" as="geometry">
            <mxPoint x="188.75" y="770" as="sourcePoint" />
            <mxPoint x="588.75" y="770" as="targetPoint" />
          </mxGeometry>
        </mxCell>
        <mxCell id="mNLD_Fydbw7ZUMLRvZzZ-61" value="Retorna listado completo(HTTP 200)" style="verticalAlign=bottom;endArrow=block;entryX=1.5;entryY=0.263;shadow=0;strokeWidth=1;entryDx=0;entryDy=0;entryPerimeter=0;" parent="1" edge="1">
          <mxGeometry relative="1" as="geometry">
            <mxPoint x="588.75" y="810" as="sourcePoint" />
            <mxPoint x="188.75" y="810" as="targetPoint" />
            <mxPoint as="offset" />
          </mxGeometry>
        </mxCell>
        <mxCell id="mNLD_Fydbw7ZUMLRvZzZ-62" value="Obtener listado de usuarios(ROLE_USER)" style="verticalAlign=bottom;endArrow=block;shadow=0;strokeWidth=1;fillColor=#d5e8d4;strokeColor=#82b366;" parent="1" edge="1">
          <mxGeometry relative="1" as="geometry">
            <mxPoint x="198.75" y="910" as="sourcePoint" />
            <mxPoint x="588.75" y="910" as="targetPoint" />
            <mxPoint as="offset" />
          </mxGeometry>
        </mxCell>
        <mxCell id="mNLD_Fydbw7ZUMLRvZzZ-63" value="Retorna solo informaciÃ³n del propio usuario" style="verticalAlign=bottom;endArrow=block;entryX=1.5;entryY=0.263;shadow=0;strokeWidth=1;entryDx=0;entryDy=0;entryPerimeter=0;fillColor=#d5e8d4;strokeColor=#82b366;" parent="1" edge="1">
          <mxGeometry relative="1" as="geometry">
            <mxPoint x="588.75" y="964.5" as="sourcePoint" />
            <mxPoint x="188.75" y="964.5" as="targetPoint" />
            <mxPoint as="offset" />
          </mxGeometry>
        </mxCell>
        <mxCell id="mNLD_Fydbw7ZUMLRvZzZ-69" value="" style="shape=step;perimeter=stepPerimeter;whiteSpace=wrap;html=1;fixedSize=1;rotation=-180;" parent="1" vertex="1">
          <mxGeometry x="627.5" y="930" width="160" height="60" as="geometry" />
        </mxCell>
        <mxCell id="mNLD_Fydbw7ZUMLRvZzZ-70" value="No muestra informacion ajena al del usuario que consulta" style="text;html=1;strokeColor=none;fillColor=none;align=center;verticalAlign=middle;whiteSpace=wrap;rounded=0;" parent="1" vertex="1">
          <mxGeometry x="651.25" y="945" width="112.5" height="30" as="geometry" />
        </mxCell>
        <mxCell id="mNLD_Fydbw7ZUMLRvZzZ-75" value="" style="rounded=0;whiteSpace=wrap;html=1;fillColor=#d5e8d4;strokeColor=#82b366;" parent="1" vertex="1">
          <mxGeometry x="150" y="1520" width="470" height="100" as="geometry" />
        </mxCell>
        <mxCell id="mNLD_Fydbw7ZUMLRvZzZ-76" value="Usuario" style="shape=umlLifeline;perimeter=lifelinePerimeter;container=1;collapsible=0;recursiveResize=0;rounded=0;shadow=0;strokeWidth=1;" parent="1" vertex="1">
          <mxGeometry x="120" y="1180" width="100" height="690" as="geometry" />
        </mxCell>
        <mxCell id="mNLD_Fydbw7ZUMLRvZzZ-77" value="" style="rounded=0;whiteSpace=wrap;html=1;fillColor=#dae8fc;strokeColor=#6c8ebf;" parent="mNLD_Fydbw7ZUMLRvZzZ-76" vertex="1">
          <mxGeometry x="30" y="70" width="470" height="90" as="geometry" />
        </mxCell>
        <mxCell id="mNLD_Fydbw7ZUMLRvZzZ-78" value="" style="points=[];perimeter=orthogonalPerimeter;rounded=0;shadow=0;strokeWidth=1;" parent="mNLD_Fydbw7ZUMLRvZzZ-76" vertex="1">
          <mxGeometry x="45" y="50" width="10" height="610" as="geometry" />
        </mxCell>
        <mxCell id="mNLD_Fydbw7ZUMLRvZzZ-79" value="ms-user" style="shape=umlLifeline;perimeter=lifelinePerimeter;container=1;collapsible=0;recursiveResize=0;rounded=0;shadow=0;strokeWidth=1;" parent="1" vertex="1">
          <mxGeometry x="510" y="1180" width="160" height="690" as="geometry" />
        </mxCell>
        <mxCell id="mNLD_Fydbw7ZUMLRvZzZ-101" value="" style="shape=step;perimeter=stepPerimeter;whiteSpace=wrap;html=1;fixedSize=1;rotation=-180;" parent="mNLD_Fydbw7ZUMLRvZzZ-79" vertex="1">
          <mxGeometry x="108.75" y="580" width="160" height="40" as="geometry" />
        </mxCell>
        <mxCell id="mNLD_Fydbw7ZUMLRvZzZ-80" value="" style="points=[];perimeter=orthogonalPerimeter;rounded=0;shadow=0;strokeWidth=1;" parent="mNLD_Fydbw7ZUMLRvZzZ-79" vertex="1">
          <mxGeometry x="75" y="55" width="10" height="605" as="geometry" />
        </mxCell>
        <mxCell id="mNLD_Fydbw7ZUMLRvZzZ-81" value="Obtiene usuario por email(ROLE_ADMIN)" style="verticalAlign=bottom;endArrow=block;shadow=0;strokeWidth=1;" parent="1" edge="1">
          <mxGeometry relative="1" as="geometry">
            <mxPoint x="180" y="1270" as="sourcePoint" />
            <mxPoint x="580" y="1270" as="targetPoint" />
          </mxGeometry>
        </mxCell>
        <mxCell id="mNLD_Fydbw7ZUMLRvZzZ-82" value="Retorna informacion del usuario (HTTP 200)" style="verticalAlign=bottom;endArrow=block;entryX=1.5;entryY=0.263;shadow=0;strokeWidth=1;entryDx=0;entryDy=0;entryPerimeter=0;" parent="1" edge="1">
          <mxGeometry relative="1" as="geometry">
            <mxPoint x="580" y="1310" as="sourcePoint" />
            <mxPoint x="180" y="1310" as="targetPoint" />
          </mxGeometry>
        </mxCell>
        <mxCell id="mNLD_Fydbw7ZUMLRvZzZ-83" value="Creacion de usuario(ROLE_USER)" style="verticalAlign=bottom;endArrow=block;shadow=0;strokeWidth=1;fillColor=#d5e8d4;strokeColor=#82b366;" parent="1" edge="1">
          <mxGeometry relative="1" as="geometry">
            <mxPoint x="190" y="1550" as="sourcePoint" />
            <mxPoint x="580" y="1550" as="targetPoint" />
            <mxPoint as="offset" />
          </mxGeometry>
        </mxCell>
        <mxCell id="mNLD_Fydbw7ZUMLRvZzZ-84" value="Retorna informacion del usuario (HTTP 200)" style="verticalAlign=bottom;endArrow=block;entryX=1.5;entryY=0.263;shadow=0;strokeWidth=1;entryDx=0;entryDy=0;entryPerimeter=0;fillColor=#d5e8d4;strokeColor=#82b366;" parent="1" edge="1">
          <mxGeometry relative="1" as="geometry">
            <mxPoint x="580" y="1604.5" as="sourcePoint" />
            <mxPoint x="180" y="1604.5" as="targetPoint" />
            <mxPoint as="offset" />
          </mxGeometry>
        </mxCell>
        <mxCell id="mNLD_Fydbw7ZUMLRvZzZ-90" value="" style="shape=step;perimeter=stepPerimeter;whiteSpace=wrap;html=1;fixedSize=1;rotation=-180;" parent="1" vertex="1">
          <mxGeometry x="620" y="1580" width="160" height="40" as="geometry" />
        </mxCell>
        <mxCell id="mNLD_Fydbw7ZUMLRvZzZ-91" value="El usuario solo puede consutar su propia informacion" style="text;html=1;strokeColor=none;fillColor=none;align=center;verticalAlign=middle;whiteSpace=wrap;rounded=0;" parent="1" vertex="1">
          <mxGeometry x="643.75" y="1585" width="112.5" height="30" as="geometry" />
        </mxCell>
        <mxCell id="mNLD_Fydbw7ZUMLRvZzZ-94" value="Obtiene usuario por email(ROLE_ADMIN)" style="verticalAlign=bottom;endArrow=block;shadow=0;strokeWidth=1;" parent="1" edge="1">
          <mxGeometry relative="1" as="geometry">
            <mxPoint x="178.75" y="1400" as="sourcePoint" />
            <mxPoint x="578.75" y="1400" as="targetPoint" />
          </mxGeometry>
        </mxCell>
        <mxCell id="mNLD_Fydbw7ZUMLRvZzZ-95" value="No existe el usuario (HTTP 203)" style="verticalAlign=bottom;endArrow=block;entryX=1.5;entryY=0.263;shadow=0;strokeWidth=1;entryDx=0;entryDy=0;entryPerimeter=0;" parent="1" edge="1">
          <mxGeometry relative="1" as="geometry">
            <mxPoint x="578.75" y="1440" as="sourcePoint" />
            <mxPoint x="178.75" y="1440" as="targetPoint" />
          </mxGeometry>
        </mxCell>
        <mxCell id="mNLD_Fydbw7ZUMLRvZzZ-96" value="No se encontrÃ³ al usuario" style="text;html=1;strokeColor=none;fillColor=none;align=center;verticalAlign=middle;whiteSpace=wrap;rounded=0;" parent="1" vertex="1">
          <mxGeometry x="643.75" y="1425" width="112.5" height="30" as="geometry" />
        </mxCell>
        <mxCell id="mNLD_Fydbw7ZUMLRvZzZ-99" value="Creacion de usuario(ROLE_USER)" style="verticalAlign=bottom;endArrow=block;shadow=0;strokeWidth=1;fillColor=#d5e8d4;strokeColor=#82b366;" parent="1" edge="1">
          <mxGeometry relative="1" as="geometry">
            <mxPoint x="188.75" y="1730" as="sourcePoint" />
            <mxPoint x="578.75" y="1730" as="targetPoint" />
            <mxPoint as="offset" />
          </mxGeometry>
        </mxCell>
        <mxCell id="mNLD_Fydbw7ZUMLRvZzZ-100" value="Not authorized (HTTP 403)" style="verticalAlign=bottom;endArrow=block;entryX=1.5;entryY=0.263;shadow=0;strokeWidth=1;entryDx=0;entryDy=0;entryPerimeter=0;fillColor=#d5e8d4;strokeColor=#82b366;" parent="1" edge="1">
          <mxGeometry relative="1" as="geometry">
            <mxPoint x="578.75" y="1784.5" as="sourcePoint" />
            <mxPoint x="178.75" y="1784.5" as="targetPoint" />
            <mxPoint as="offset" />
          </mxGeometry>
        </mxCell>
        <mxCell id="mNLD_Fydbw7ZUMLRvZzZ-102" value="No puede consultar informacion de otro usuario" style="text;html=1;strokeColor=none;fillColor=none;align=center;verticalAlign=middle;whiteSpace=wrap;rounded=0;" parent="1" vertex="1">
          <mxGeometry x="642.5" y="1765" width="112.5" height="30" as="geometry" />
        </mxCell>
        <mxCell id="91wJLtN3z8yKaxQnBKFO-1" value="CREAR USUARIO" style="text;html=1;strokeColor=none;fillColor=none;align=center;verticalAlign=middle;whiteSpace=wrap;rounded=0;" vertex="1" parent="1">
          <mxGeometry x="340" width="120" height="30" as="geometry" />
        </mxCell>
        <mxCell id="91wJLtN3z8yKaxQnBKFO-2" value="LISTAR USUARIOS" style="text;html=1;strokeColor=none;fillColor=none;align=center;verticalAlign=middle;whiteSpace=wrap;rounded=0;" vertex="1" parent="1">
          <mxGeometry x="310" y="640" width="120" height="30" as="geometry" />
        </mxCell>
        <mxCell id="91wJLtN3z8yKaxQnBKFO-3" value="BUSCAR USUARIO POR CORREO" style="text;html=1;strokeColor=none;fillColor=none;align=center;verticalAlign=middle;whiteSpace=wrap;rounded=0;" vertex="1" parent="1">
          <mxGeometry x="300" y="1139" width="180" height="30" as="geometry" />
        </mxCell>
      </root>
    </mxGraphModel>
  </diagram>
</mxfile>
